<svg width="1440" height="249" viewBox="0 0 1440 249" fill="none" xmlns="http://www.w3.org/2000/svg">
<g opacity="0.73">
<path opacity="0.73" d="M1469 0H-24L-19.0355 13.3166C77.2764 80.3361 223.896 116.356 365.55 107.624C452.264 102.385 534.675 81.6459 618.41 66.8012C702.145 51.9565 793.162 42.5694 875.573 60.2521C991.081 84.9205 1065.55 155.651 1166.16 199.749C1253.87 238.389 1363.09 254.107 1469 247.557V0V0Z" fill="url(#paint0_linear)"/>
<path opacity="0.73" d="M1438.08 0H95.7661C159.61 32.7457 243.884 49.9918 327.2 45.4074C396.471 41.6962 462.549 24.2318 530.863 14.8447C639.397 0 753.997 6.11253 855.19 31.8725C939.783 53.4846 1013.84 88.1951 1089.82 119.631C1165.79 151.067 1247.51 180.32 1338.17 189.27C1370.73 192.326 1404.89 192.545 1438.08 189.052V0Z" fill="url(#paint1_linear)"/>
</g>
<defs>
<linearGradient id="paint0_linear" x1="689.377" y1="233.334" x2="725.399" y2="-41.8619" gradientUnits="userSpaceOnUse">
<stop stop-color="#2E006D"/>
<stop offset="0.609375" stop-color="#9E8CEF"/>
<stop offset="1" stop-color="#9E8CEF" stop-opacity="0.03"/>
</linearGradient>
<linearGradient id="paint1_linear" x1="753.587" y1="166.09" x2="770.595" y2="-30.5978" gradientUnits="userSpaceOnUse">
<stop stop-color="#765F96"/>
<stop offset="1" stop-color="#1C063B"/>
</linearGradient>
</defs>
</svg>
