<svg width="171" height="178" viewBox="0 0 171 178" fill="none" xmlns="http://www.w3.org/2000/svg">
<g filter="url(#filter0_d)">
<circle cx="107" cy="64" r="32" fill="white" fill-opacity="0.2"/>
</g>
<path fill-rule="evenodd" clip-rule="evenodd" d="M121.694 75.9447C125.177 72.4519 127.331 67.632 127.331 62.309C127.331 51.6449 118.686 43 108.022 43C100.658 43 94.2564 47.1228 91 53.1862C97.1524 58.5503 102.114 65.2539 105.435 72.8446C105.776 72.8358 106.117 72.8313 106.46 72.8313C111.867 72.8313 117.016 73.9406 121.694 75.9447Z" fill="white"/>
<path fill-rule="evenodd" clip-rule="evenodd" d="M126.705 79.3114C130.391 74.9393 132.613 69.2916 132.613 63.125C132.613 49.2488 121.364 38 107.488 38C98.3814 38 90.4066 42.8446 86 50.097C94.3375 55.9226 101.004 63.9895 105.133 73.428C105.474 73.4191 105.815 73.4146 106.158 73.4146C113.703 73.4146 120.745 75.5744 126.705 79.3114Z" fill="white" fill-opacity="0.5"/>
<path fill-rule="evenodd" clip-rule="evenodd" d="M107.135 150.196H55.3972H53.844V150.175C23.9671 149.349 0 124.783 0 94.598C0 63.8921 24.8022 39 55.3972 39C78.0786 39 97.5763 52.6805 106.145 72.2682C106.486 72.2594 106.828 72.2549 107.17 72.2549C128.615 72.2549 146 89.7026 146 111.226C146 132.575 128.894 149.915 107.688 150.193V150.196H107.205C107.193 150.196 107.182 150.196 107.17 150.196C107.159 150.196 107.147 150.196 107.135 150.196Z" fill="url(#paint0_radial)"/>
<path d="M153 75L153.674 77.0729H155.853L154.09 78.3541L154.763 80.4271L153 79.1459L151.237 80.4271L151.91 78.3541L150.147 77.0729H152.326L153 75Z" fill="white"/>
<path d="M149 48L149.674 50.0729H151.853L150.09 51.3541L150.763 53.4271L149 52.1459L147.237 53.4271L147.91 51.3541L146.147 50.0729H148.326L149 48Z" fill="white"/>
<path d="M74 21L74.8981 23.7639H77.8042L75.4531 25.4721L76.3511 28.2361L74 26.5279L71.6489 28.2361L72.5469 25.4721L70.1958 23.7639H73.1019L74 21Z" fill="white"/>
<path d="M42 159L42.449 160.382H43.9021L42.7265 161.236L43.1756 162.618L42 161.764L40.8244 162.618L41.2735 161.236L40.0979 160.382H41.551L42 159Z" fill="white"/>
<path d="M92 174L92.449 175.382H93.9021L92.7265 176.236L93.1756 177.618L92 176.764L90.8244 177.618L91.2735 176.236L90.0979 175.382H91.551L92 174Z" fill="white"/>
<path d="M130 160L130.898 162.764H133.804L131.453 164.472L132.351 167.236L130 165.528L127.649 167.236L128.547 164.472L126.196 162.764H129.102L130 160Z" fill="white"/>
<path d="M11 145L11.8981 147.764H14.8042L12.4531 149.472L13.3511 152.236L11 150.528L8.64886 152.236L9.54692 149.472L7.19577 147.764H10.1019L11 145Z" fill="white"/>
<path d="M139.5 82L139.837 83.0365H140.927L140.045 83.6771L140.382 84.7135L139.5 84.0729L138.618 84.7135L138.955 83.6771L138.073 83.0365H139.163L139.5 82Z" fill="white"/>
<path d="M102.5 18L102.837 19.0365H103.927L103.045 19.6771L103.382 20.7135L102.5 20.0729L101.618 20.7135L101.955 19.6771L101.073 19.0365H102.163L102.5 18Z" fill="white"/>
<path d="M157.5 125L157.837 126.036H158.927L158.045 126.677L158.382 127.714L157.5 127.073L156.618 127.714L156.955 126.677L156.073 126.036H157.163L157.5 125Z" fill="white"/>
<path d="M5.5 53L5.83677 54.0365H6.92658L6.04491 54.6771L6.38168 55.7135L5.5 55.0729L4.61832 55.7135L4.95509 54.6771L4.07342 54.0365H5.16323L5.5 53Z" fill="white"/>
<defs>
<filter id="filter0_d" x="43" y="0" width="128" height="128" filterUnits="userSpaceOnUse" color-interpolation-filters="sRGB">
<feFlood flood-opacity="0" result="BackgroundImageFix"/>
<feColorMatrix in="SourceAlpha" type="matrix" values="0 0 0 0 0 0 0 0 0 0 0 0 0 0 0 0 0 0 127 0"/>
<feMorphology radius="9" operator="dilate" in="SourceAlpha" result="effect1_dropShadow"/>
<feOffset/>
<feGaussianBlur stdDeviation="11.5"/>
<feColorMatrix type="matrix" values="0 0 0 0 1 0 0 0 0 1 0 0 0 0 1 0 0 0 0.25 0"/>
<feBlend mode="normal" in2="BackgroundImageFix" result="effect1_dropShadow"/>
<feBlend mode="normal" in="SourceGraphic" in2="effect1_dropShadow" result="shape"/>
</filter>
<radialGradient id="paint0_radial" cx="0" cy="0" r="1" gradientUnits="userSpaceOnUse" gradientTransform="translate(37.7943 71.2157) rotate(42.7473) scale(205.159 270.428)">
<stop stop-color="#7C60CC"/>
<stop offset="1" stop-color="#150D2B" stop-opacity="0.99"/>
</radialGradient>
</defs>
</svg>
