<svg width="1275" height="58" viewBox="0 0 1275 58" fill="none" xmlns="http://www.w3.org/2000/svg">
<g filter="url(#filter0_b)">
<mask id="path-1-inside-1" fill="white">
<path fill-rule="evenodd" clip-rule="evenodd" d="M609.791 25.5352C594.435 14.9819 578.818 0 560.185 0H29C12.9837 0 0 12.9837 0 29C0 45.0163 12.9837 58 29 58H1246C1262.02 58 1275 45.0163 1275 29C1275 12.9837 1262.02 0 1246 0H714.815C696.182 0 680.565 14.9819 665.209 25.5352C657.47 30.8534 647.882 34 637.5 34C627.118 34 617.53 30.8534 609.791 25.5352Z"/>
</mask>
<path fill-rule="evenodd" clip-rule="evenodd" d="M609.791 25.5352C594.435 14.9819 578.818 0 560.185 0H29C12.9837 0 0 12.9837 0 29C0 45.0163 12.9837 58 29 58H1246C1262.02 58 1275 45.0163 1275 29C1275 12.9837 1262.02 0 1246 0H714.815C696.182 0 680.565 14.9819 665.209 25.5352C657.47 30.8534 647.882 34 637.5 34C627.118 34 617.53 30.8534 609.791 25.5352Z" fill="white" fill-opacity="0.14"/>
<path d="M665.209 25.5352L665.492 25.9473L665.209 25.5352ZM609.791 25.5352L609.508 25.9473L609.791 25.5352ZM29 0.5H560.185V-0.5H29V0.5ZM0.5 29C0.5 13.2599 13.2599 0.5 29 0.5V-0.5C12.7076 -0.5 -0.5 12.7076 -0.5 29H0.5ZM29 57.5C13.2599 57.5 0.5 44.7401 0.5 29H-0.5C-0.5 45.2924 12.7076 58.5 29 58.5V57.5ZM1246 57.5H29V58.5H1246V57.5ZM1274.5 29C1274.5 44.7401 1261.74 57.5 1246 57.5V58.5C1262.29 58.5 1275.5 45.2924 1275.5 29H1274.5ZM1246 0.5C1261.74 0.5 1274.5 13.2599 1274.5 29H1275.5C1275.5 12.7076 1262.29 -0.5 1246 -0.5V0.5ZM714.815 0.5H1246V-0.5H714.815V0.5ZM664.926 25.1231C657.27 30.3844 647.781 33.5 637.5 33.5V34.5C647.984 34.5 657.671 31.3224 665.492 25.9473L664.926 25.1231ZM637.5 33.5C627.219 33.5 617.73 30.3844 610.074 25.1231L609.508 25.9473C617.329 31.3224 627.016 34.5 637.5 34.5V33.5ZM714.815 -0.5C705.363 -0.5 696.705 3.30038 688.519 8.3854C684.425 10.9289 680.437 13.8011 676.521 16.6908C672.6 19.5844 668.756 22.4911 664.926 25.1231L665.492 25.9473C669.34 23.3027 673.207 20.3792 677.115 17.4955C681.028 14.608 684.989 11.756 689.047 9.23484C697.167 4.19058 705.635 0.5 714.815 0.5V-0.5ZM560.185 0.5C569.365 0.5 577.833 4.19058 585.953 9.23484C590.011 11.756 593.972 14.608 597.885 17.4955C601.793 20.3792 605.66 23.3027 609.508 25.9473L610.074 25.1231C606.244 22.4911 602.4 19.5844 598.479 16.6908C594.563 13.8011 590.575 10.9289 586.481 8.3854C578.295 3.30038 569.637 -0.5 560.185 -0.5V0.5Z" fill="white" fill-opacity="0.31" mask="url(#path-1-inside-1)"/>
</g>
<defs>
<filter id="filter0_b" x="-100" y="-100" width="1475" height="258" filterUnits="userSpaceOnUse" color-interpolation-filters="sRGB">
<feFlood flood-opacity="0" result="BackgroundImageFix"/>
<feGaussianBlur in="BackgroundImage" stdDeviation="50"/>
<feComposite in2="SourceAlpha" operator="in" result="effect1_backgroundBlur"/>
<feBlend mode="normal" in="SourceGraphic" in2="effect1_backgroundBlur" result="shape"/>
</filter>
</defs>
</svg>
